<svg xmlns="http://www.w3.org/2000/svg" viewBox="0 0 420 270" width="420" height="270" role="img" aria-label="RELAY BREAKER cabinet marquee">
<defs>
<linearGradient id="g1f" x1="0" y1="0" x2="0" y2="1">
<stop offset="0" stop-color="#0C0C0C" stop-opacity="0"/>
<stop offset="0.55" stop-color="#0C0C0C" stop-opacity="0.72"/>
<stop offset="1" stop-color="#0C0C0C" stop-opacity="0.98"/>
</linearGradient>
<linearGradient id="g1t" x1="0" y1="0" x2="1" y2="0">
<stop offset="0" stop-color="#D7E2EA"/>
<stop offset="1" stop-color="#7621B0"/>
</linearGradient>
<clipPath id="g1c"><rect width="420" height="270" rx="18"/></clipPath>
</defs>
<g clip-path="url(#g1c)">
<rect width="420" height="270" fill="#0C0C0C"/>
<rect width="420" height="270" fill="#FF6A1F" opacity="0.09"/>
<line x1="210" y1="300" x2="-246.7" y2="245.0" stroke="#FF6A1F" stroke-width="1.5" opacity="0.22"/><line x1="210" y1="300" x2="-234.8" y2="182.7" stroke="#7621B0" stroke-width="3.9" opacity="0.25"/><line x1="210" y1="300" x2="-215.2" y2="124.5" stroke="#7621B0" stroke-width="6.8" opacity="0.44"/><line x1="210" y1="300" x2="-183.8" y2="62.3" stroke="#FF6A1F" stroke-width="4.2" opacity="0.21"/><line x1="210" y1="300" x2="-147.6" y2="10.6" stroke="#7621B0" stroke-width="6.6" opacity="0.51"/><line x1="210" y1="300" x2="-95.4" y2="-44.0" stroke="#7621B0" stroke-width="6.4" opacity="0.59"/><line x1="210" y1="300" x2="-37.6" y2="-87.7" stroke="#FF6A1F" stroke-width="3.3" opacity="0.16"/><line x1="210" y1="300" x2="22.2" y2="-119.9" stroke="#7621B0" stroke-width="3.4" opacity="0.34"/><line x1="210" y1="300" x2="81.5" y2="-141.7" stroke="#7621B0" stroke-width="4.5" opacity="0.32"/><line x1="210" y1="300" x2="128.8" y2="-152.8" stroke="#FF6A1F" stroke-width="1.0" opacity="0.56"/><line x1="210" y1="300" x2="213.0" y2="-160.0" stroke="#7621B0" stroke-width="4.5" opacity="0.42"/><line x1="210" y1="300" x2="284.3" y2="-154.0" stroke="#7621B0" stroke-width="2.6" opacity="0.35"/><line x1="210" y1="300" x2="333.0" y2="-143.2" stroke="#FF6A1F" stroke-width="6.5" opacity="0.24"/><line x1="210" y1="300" x2="408.5" y2="-115.0" stroke="#7621B0" stroke-width="4.9" opacity="0.47"/><line x1="210" y1="300" x2="464.5" y2="-83.2" stroke="#7621B0" stroke-width="1.7" opacity="0.16"/><line x1="210" y1="300" x2="504.5" y2="-53.3" stroke="#FF6A1F" stroke-width="3.9" opacity="0.17"/><line x1="210" y1="300" x2="547.9" y2="-12.1" stroke="#7621B0" stroke-width="6.6" opacity="0.58"/><line x1="210" y1="300" x2="594.9" y2="48.1" stroke="#7621B0" stroke-width="2.3" opacity="0.27"/><line x1="210" y1="300" x2="624.5" y2="100.5" stroke="#FF6A1F" stroke-width="1.5" opacity="0.22"/><line x1="210" y1="300" x2="654.6" y2="182.0" stroke="#7621B0" stroke-width="5.2" opacity="0.24"/><line x1="210" y1="300" x2="665.5" y2="235.9" stroke="#7621B0" stroke-width="2.4" opacity="0.42"/><line x1="210" y1="300" x2="670.0" y2="303.2" stroke="#FF6A1F" stroke-width="5.3" opacity="0.21"/>
<rect width="420" height="270" fill="url(#g1f)"/>
<text x="26" y="228" font-family="Kanit, Impact, 'Arial Black', sans-serif" font-weight="900"
      font-size="30" textLength="299" lengthAdjust="spacingAndGlyphs" fill="url(#g1t)">RELAY BREAKER</text>
<text x="26" y="250" font-family="'Share Tech Mono', ui-monospace, monospace"
      font-size="12" textLength="144" lengthAdjust="spacingAndGlyphs" fill="#646973">CAB.02 / VOLTPIT</text>
<rect x="0" y="0" width="420" height="4" fill="#7621B0" opacity="0.85"/>
<rect width="420" height="270" rx="18" fill="none" stroke="#D7E2EA" stroke-opacity="0.14" stroke-width="2"/>
</g>
</svg>
