<svg xmlns="http://www.w3.org/2000/svg" viewBox="0 0 420 270" width="420" height="270" role="img" aria-label="VOLT 2048 cabinet marquee">
<defs>
<linearGradient id="g4f" x1="0" y1="0" x2="0" y2="1">
<stop offset="0" stop-color="#0C0C0C" stop-opacity="0"/>
<stop offset="0.55" stop-color="#0C0C0C" stop-opacity="0.72"/>
<stop offset="1" stop-color="#0C0C0C" stop-opacity="0.98"/>
</linearGradient>
<linearGradient id="g4t" x1="0" y1="0" x2="1" y2="0">
<stop offset="0" stop-color="#D7E2EA"/>
<stop offset="1" stop-color="#7621B0"/>
</linearGradient>
<clipPath id="g4c"><rect width="420" height="270" rx="18"/></clipPath>
</defs>
<g clip-path="url(#g4c)">
<rect width="420" height="270" fill="#0C0C0C"/>
<rect width="420" height="270" fill="#FF6A1F" opacity="0.09"/>
<rect x="0" y="60" width="14" height="40" fill="#FF6A1F" opacity="0.6"/><rect x="18" y="60" width="14" height="40" fill="#7621B0" opacity="0.42"/><rect x="36" y="0" width="22" height="40" fill="#D7E2EA" opacity="0.66"/><rect x="62" y="30" width="36" height="70" fill="#D7E2EA" opacity="0.41"/><rect x="102" y="0" width="36" height="40" fill="#D7E2EA" opacity="0.38"/><rect x="142" y="30" width="14" height="70" fill="#FF6A1F" opacity="0.61"/><rect x="160" y="230" width="14" height="40" fill="#7621B0" opacity="0.29"/><rect x="178" y="0" width="22" height="110" fill="#D7E2EA" opacity="0.43"/><rect x="204" y="0" width="54" height="70" fill="#FF6A1F" opacity="0.29"/><rect x="262" y="160" width="36" height="110" fill="#FF6A1F" opacity="0.64"/><rect x="302" y="30" width="14" height="70" fill="#D7E2EA" opacity="0.2"/><rect x="320" y="0" width="54" height="160" fill="#D7E2EA" opacity="0.27"/><rect x="378" y="60" width="14" height="110" fill="#D7E2EA" opacity="0.44"/><rect x="396" y="160" width="22" height="110" fill="#FF6A1F" opacity="0.58"/>
<rect width="420" height="270" fill="url(#g4f)"/>
<text x="26" y="228" font-family="Kanit, Impact, 'Arial Black', sans-serif" font-weight="900"
      font-size="34" textLength="207" lengthAdjust="spacingAndGlyphs" fill="url(#g4t)">VOLT 2048</text>
<text x="26" y="250" font-family="'Share Tech Mono', ui-monospace, monospace"
      font-size="12" textLength="144" lengthAdjust="spacingAndGlyphs" fill="#646973">CAB.05 / VOLTPIT</text>
<rect x="0" y="0" width="420" height="4" fill="#7621B0" opacity="0.85"/>
<rect width="420" height="270" rx="18" fill="none" stroke="#D7E2EA" stroke-opacity="0.14" stroke-width="2"/>
</g>
</svg>
